<?xml version="1.0" encoding="UTF-8"?>
<svg width="1600" height="900" viewBox="0 0 1600 900" xmlns="http://www.w3.org/2000/svg">
  <defs>
    <filter id="shadow" x="-20%" y="-20%" width="140%" height="140%">
      <feDropShadow dx="0" dy="12" stdDeviation="18" flood-color="#0d1117" flood-opacity="0.08"/>
    </filter>
    <marker id="arrow" markerWidth="14" markerHeight="14" refX="10" refY="5" orient="auto" markerUnits="strokeWidth">
      <path d="M0,0 L10,5 L0,10 Z" fill="#1557ff" />
    </marker>
  </defs>
  <rect width="1600" height="900" fill="#f4f6f8" />
  <rect x="54" y="42" width="1492" height="88" rx="18" fill="#ffffff" stroke="#d8dee8" />
  <text x="86" y="82" font-size="18" font-weight="900" fill="#1557ff" font-family="Arial, Helvetica, sans-serif">LOOKITUP FIGURE 03</text>
  <text x="86" y="111" font-size="28" font-weight="900" fill="#0d1117" font-family="Arial, Helvetica, sans-serif">The source boundary is the product</text>
  <text x="1040" y="95" font-size="20" font-weight="800" fill="#5b6472" font-family="Arial, Helvetica, sans-serif">Global source gap</text>
  
      <rect x="90" y="230" width="420" height="420" rx="20" fill="#ffffff" stroke="#d8dee8" filter="url(#shadow)" />
      <text x="126" y="288" font-size="34" font-weight="900" fill="#0d1117" font-family="Arial, Helvetica, sans-serif"><tspan x="126" dy="0">Whole web</tspan></text>
      <text x="126" y="348" font-size="24" font-weight="800" fill="#5b6472" font-family="Arial, Helvetica, sans-serif"><tspan x="126" dy="0">Many links. No source</tspan><tspan x="126" dy="28.32">boundary. The journalist</tspan><tspan x="126" dy="28.32">filters noise manually.</tspan></text>
      <circle cx="170" cy="510" r="12" fill="#d92d20" /><circle cx="236" cy="470" r="9" fill="#8b95a5" /><circle cx="320" cy="532" r="11" fill="#8b95a5" /><circle cx="410" cy="488" r="10" fill="#d92d20" />

      <rect x="590" y="230" width="420" height="420" rx="20" fill="#ffffff" stroke="#d8dee8" filter="url(#shadow)" />
      <text x="626" y="288" font-size="34" font-weight="900" fill="#0d1117" font-family="Arial, Helvetica, sans-serif"><tspan x="626" dy="0">Generated answer</tspan></text>
      <text x="626" y="348" font-size="24" font-weight="800" fill="#5b6472" font-family="Arial, Helvetica, sans-serif"><tspan x="626" dy="0">Fluent text still needs</tspan><tspan x="626" dy="28.32">source checking before</tspan><tspan x="626" dy="28.32">publication.</tspan></text>
      <rect x="636" y="472" width="310" height="88" rx="18" fill="#fff7e6" stroke="#ffe0a3" />
      <text x="666" y="526" font-size="28" font-weight="900" fill="#b7791f" font-family="Arial, Helvetica, sans-serif"><tspan x="666" dy="0">Answer first</tspan></text>

      <rect x="1090" y="230" width="420" height="420" rx="20" fill="#edf3ff" stroke="#c9d9ff" filter="url(#shadow)" />
      <text x="1126" y="288" font-size="34" font-weight="900" fill="#1557ff" font-family="Arial, Helvetica, sans-serif"><tspan x="1126" dy="0">Trusted sources</tspan></text>
      <text x="1126" y="348" font-size="24" font-weight="800" fill="#5b6472" font-family="Arial, Helvetica, sans-serif"><tspan x="1126" dy="0">Selected sources feed</tspan><tspan x="1126" dy="28.32">visible Evidence Cards.</tspan></text>
      <rect x="1140" y="468" width="145" height="92" rx="12" fill="#ffffff" stroke="#d8dee8" />
      <rect x="1308" y="468" width="145" height="92" rx="12" fill="#ffffff" stroke="#d8dee8" />
      <text x="1162" y="522" font-size="22" font-weight="900" fill="#1557ff" font-family="Arial, Helvetica, sans-serif"><tspan x="1162" dy="0">Evidence</tspan></text>
      <text x="1338" y="522" font-size="22" font-weight="900" fill="#1557ff" font-family="Arial, Helvetica, sans-serif"><tspan x="1338" dy="0">Cards</tspan></text>
    
</svg>