<?xml version="1.0" encoding="UTF-8"?>
<svg width="1600" height="900" viewBox="0 0 1600 900" xmlns="http://www.w3.org/2000/svg">
  <defs>
    <filter id="shadow" x="-20%" y="-20%" width="140%" height="140%">
      <feDropShadow dx="0" dy="12" stdDeviation="18" flood-color="#0d1117" flood-opacity="0.08"/>
    </filter>
    <marker id="arrow" markerWidth="14" markerHeight="14" refX="10" refY="5" orient="auto" markerUnits="strokeWidth">
      <path d="M0,0 L10,5 L0,10 Z" fill="#1557ff" />
    </marker>
  </defs>
  <rect width="1600" height="900" fill="#f4f6f8" />
  <rect x="54" y="42" width="1492" height="88" rx="18" fill="#ffffff" stroke="#d8dee8" />
  <text x="86" y="82" font-size="18" font-weight="900" fill="#1557ff" font-family="Arial, Helvetica, sans-serif">LOOKITUP FIGURE 06</text>
  <text x="86" y="111" font-size="28" font-weight="900" fill="#0d1117" font-family="Arial, Helvetica, sans-serif">Search only inside the selected source pack</text>
  <text x="1040" y="95" font-size="20" font-weight="800" fill="#5b6472" font-family="Arial, Helvetica, sans-serif">Technical core</text>
  
      
    <rect x="80" y="250" width="220" height="260" rx="18" fill="#ffffff" stroke="#d8dee8" filter="url(#shadow)" />
    <rect x="80" y="250" width="8" height="260" rx="4" fill="#1557ff" />
    <text x="108" y="306" font-size="30" font-weight="900" fill="#0d1117" font-family="Arial, Helvetica, sans-serif"><tspan x="108" dy="0">Trusted</tspan><tspan x="108" dy="35.4">Source</tspan><tspan x="108" dy="35.4">Pack</tspan></text>
    <text x="108" y="432.8" font-size="22" font-weight="700" fill="#5b6472" font-family="Arial, Helvetica, sans-serif"><tspan x="108" dy="0">Newsroom-defined</tspan><tspan x="108" dy="27.5">boundary</tspan></text>
  
      
    <rect x="330" y="250" width="220" height="260" rx="18" fill="#ffffff" stroke="#d8dee8" filter="url(#shadow)" />
    <rect x="330" y="250" width="8" height="260" rx="4" fill="#1557ff" />
    <text x="358" y="306" font-size="30" font-weight="900" fill="#0d1117" font-family="Arial, Helvetica, sans-serif"><tspan x="358" dy="0">Local</tspan><tspan x="358" dy="35.4">Corpus</tspan></text>
    <text x="358" y="397.4" font-size="22" font-weight="700" fill="#5b6472" font-family="Arial, Helvetica, sans-serif"><tspan x="358" dy="0">Reliable demo</tspan><tspan x="358" dy="27.5">data</tspan></text>
  
      
    <rect x="580" y="250" width="220" height="260" rx="18" fill="#ffffff" stroke="#d8dee8" filter="url(#shadow)" />
    <rect x="580" y="250" width="8" height="260" rx="4" fill="#067647" />
    <text x="608" y="306" font-size="30" font-weight="900" fill="#0d1117" font-family="Arial, Helvetica, sans-serif"><tspan x="608" dy="0">Search</tspan><tspan x="608" dy="35.4">Index</tspan></text>
    <text x="608" y="397.4" font-size="22" font-weight="700" fill="#5b6472" font-family="Arial, Helvetica, sans-serif"><tspan x="608" dy="0">Fast</tspan><tspan x="608" dy="27.5">retrieval</tspan><tspan x="608" dy="27.5">layer</tspan></text>
  
      
    <rect x="830" y="250" width="220" height="260" rx="18" fill="#ffffff" stroke="#d8dee8" filter="url(#shadow)" />
    <rect x="830" y="250" width="8" height="260" rx="4" fill="#b7791f" />
    <text x="858" y="306" font-size="30" font-weight="900" fill="#0d1117" font-family="Arial, Helvetica, sans-serif"><tspan x="858" dy="0">Claim</tspan><tspan x="858" dy="35.4">Search</tspan></text>
    <text x="858" y="397.4" font-size="22" font-weight="700" fill="#5b6472" font-family="Arial, Helvetica, sans-serif"><tspan x="858" dy="0">One doubtful</tspan><tspan x="858" dy="27.5">sentence</tspan></text>
  
      
    <rect x="1080" y="250" width="220" height="260" rx="18" fill="#ffffff" stroke="#d8dee8" filter="url(#shadow)" />
    <rect x="1080" y="250" width="8" height="260" rx="4" fill="#1557ff" />
    <text x="1108" y="306" font-size="30" font-weight="900" fill="#0d1117" font-family="Arial, Helvetica, sans-serif"><tspan x="1108" dy="0">Evidence</tspan><tspan x="1108" dy="35.4">Ranking</tspan></text>
    <text x="1108" y="397.4" font-size="22" font-weight="700" fill="#5b6472" font-family="Arial, Helvetica, sans-serif"><tspan x="1108" dy="0">Best matching</tspan><tspan x="1108" dy="27.5">quotes</tspan></text>
  
      
    <rect x="1330" y="250" width="220" height="260" rx="18" fill="#ffffff" stroke="#d8dee8" filter="url(#shadow)" />
    <rect x="1330" y="250" width="8" height="260" rx="4" fill="#067647" />
    <text x="1358" y="306" font-size="30" font-weight="900" fill="#0d1117" font-family="Arial, Helvetica, sans-serif"><tspan x="1358" dy="0">Visible</tspan><tspan x="1358" dy="35.4">Evidence</tspan></text>
    <text x="1358" y="397.4" font-size="22" font-weight="700" fill="#5b6472" font-family="Arial, Helvetica, sans-serif"><tspan x="1358" dy="0">Cards before</tspan><tspan x="1358" dy="27.5">publication</tspan></text>
  
      <line x1="305" y1="380" x2="325" y2="380" stroke="#1557ff" stroke-width="5" stroke-linecap="round" marker-end="url(#arrow)" />
      <line x1="555" y1="380" x2="575" y2="380" stroke="#1557ff" stroke-width="5" stroke-linecap="round" marker-end="url(#arrow)" />
      <line x1="805" y1="380" x2="825" y2="380" stroke="#1557ff" stroke-width="5" stroke-linecap="round" marker-end="url(#arrow)" />
      <line x1="1055" y1="380" x2="1075" y2="380" stroke="#1557ff" stroke-width="5" stroke-linecap="round" marker-end="url(#arrow)" />
      <line x1="1305" y1="380" x2="1325" y2="380" stroke="#1557ff" stroke-width="5" stroke-linecap="round" marker-end="url(#arrow)" />
      <rect x="190" y="640" width="1220" height="112" rx="18" fill="#edf3ff" stroke="#c9d9ff" />
      <text x="242" y="692" font-size="30" font-weight="900" fill="#0d1117" font-family="Arial, Helvetica, sans-serif"><tspan x="242" dy="0">P0 works without generation. Future AI summaries must cite retrieved</tspan><tspan x="242" dy="35.4">Evidence Cards.</tspan></text>
    
</svg>