<?xml version="1.0" encoding="UTF-8"?>
<svg width="1600" height="900" viewBox="0 0 1600 900" xmlns="http://www.w3.org/2000/svg">
  <defs>
    <filter id="shadow" x="-20%" y="-20%" width="140%" height="140%">
      <feDropShadow dx="0" dy="12" stdDeviation="18" flood-color="#0d1117" flood-opacity="0.08"/>
    </filter>
    <marker id="arrow" markerWidth="14" markerHeight="14" refX="10" refY="5" orient="auto" markerUnits="strokeWidth">
      <path d="M0,0 L10,5 L0,10 Z" fill="#1557ff" />
    </marker>
  </defs>
  <rect width="1600" height="900" fill="#f4f6f8" />
  <rect x="54" y="42" width="1492" height="88" rx="18" fill="#ffffff" stroke="#d8dee8" />
  <text x="86" y="82" font-size="18" font-weight="900" fill="#1557ff" font-family="Arial, Helvetica, sans-serif">LOOKITUP FIGURE 05</text>
  <text x="86" y="111" font-size="28" font-weight="900" fill="#0d1117" font-family="Arial, Helvetica, sans-serif">Newsroom evidence workspace</text>
  <text x="1040" y="95" font-size="20" font-weight="800" fill="#5b6472" font-family="Arial, Helvetica, sans-serif">Product vision</text>
  
      
    <rect x="90" y="260" width="250" height="260" rx="18" fill="#ffffff" stroke="#d8dee8" filter="url(#shadow)" />
    <rect x="90" y="260" width="8" height="260" rx="4" fill="#d92d20" />
    <text x="118" y="316" font-size="30" font-weight="900" fill="#0d1117" font-family="Arial, Helvetica, sans-serif"><tspan x="118" dy="0">Draft Claim</tspan></text>
    <text x="118" y="407.4" font-size="22" font-weight="700" fill="#5b6472" font-family="Arial, Helvetica, sans-serif"><tspan x="118" dy="0">A doubtful</tspan><tspan x="118" dy="27.5">sentence is</tspan><tspan x="118" dy="27.5">attached to the</tspan><tspan x="118" dy="27.5">article draft.</tspan></text>
  
      
    <rect x="380" y="260" width="250" height="260" rx="18" fill="#ffffff" stroke="#d8dee8" filter="url(#shadow)" />
    <rect x="380" y="260" width="8" height="260" rx="4" fill="#1557ff" />
    <text x="408" y="316" font-size="30" font-weight="900" fill="#0d1117" font-family="Arial, Helvetica, sans-serif"><tspan x="408" dy="0">Evidence</tspan><tspan x="408" dy="35.4">Cards</tspan></text>
    <text x="408" y="407.4" font-size="22" font-weight="700" fill="#5b6472" font-family="Arial, Helvetica, sans-serif"><tspan x="408" dy="0">Source quotes</tspan><tspan x="408" dy="27.5">stay visible</tspan><tspan x="408" dy="27.5">beside the</tspan><tspan x="408" dy="27.5">claim.</tspan></text>
  
      
    <rect x="670" y="260" width="250" height="260" rx="18" fill="#ffffff" stroke="#d8dee8" filter="url(#shadow)" />
    <rect x="670" y="260" width="8" height="260" rx="4" fill="#067647" />
    <text x="698" y="316" font-size="30" font-weight="900" fill="#0d1117" font-family="Arial, Helvetica, sans-serif"><tspan x="698" dy="0">Cited</tspan><tspan x="698" dy="35.4">Summary</tspan></text>
    <text x="698" y="407.4" font-size="22" font-weight="700" fill="#5b6472" font-family="Arial, Helvetica, sans-serif"><tspan x="698" dy="0">Summary uses</tspan><tspan x="698" dy="27.5">only retrieved</tspan><tspan x="698" dy="27.5">Evidence Cards.</tspan></text>
  
      
    <rect x="960" y="260" width="250" height="260" rx="18" fill="#ffffff" stroke="#d8dee8" filter="url(#shadow)" />
    <rect x="960" y="260" width="8" height="260" rx="4" fill="#b7791f" />
    <text x="988" y="316" font-size="30" font-weight="900" fill="#0d1117" font-family="Arial, Helvetica, sans-serif"><tspan x="988" dy="0">Editor</tspan><tspan x="988" dy="35.4">Review</tspan></text>
    <text x="988" y="407.4" font-size="22" font-weight="700" fill="#5b6472" font-family="Arial, Helvetica, sans-serif"><tspan x="988" dy="0">Desk approval</tspan><tspan x="988" dy="27.5">happens with</tspan><tspan x="988" dy="27.5">evidence</tspan><tspan x="988" dy="27.5">attached.</tspan></text>
  
      
    <rect x="1250" y="260" width="250" height="260" rx="18" fill="#ffffff" stroke="#d8dee8" filter="url(#shadow)" />
    <rect x="1250" y="260" width="8" height="260" rx="4" fill="#1557ff" />
    <text x="1278" y="316" font-size="30" font-weight="900" fill="#0d1117" font-family="Arial, Helvetica, sans-serif"><tspan x="1278" dy="0">Evidence</tspan><tspan x="1278" dy="35.4">Pack Export</tspan></text>
    <text x="1278" y="407.4" font-size="22" font-weight="700" fill="#5b6472" font-family="Arial, Helvetica, sans-serif"><tspan x="1278" dy="0">The source trail</tspan><tspan x="1278" dy="27.5">can be saved</tspan><tspan x="1278" dy="27.5">after</tspan><tspan x="1278" dy="27.5">publication.</tspan></text>
  
      <line x1="350" y1="390" x2="370" y2="390" stroke="#1557ff" stroke-width="5" stroke-linecap="round" marker-end="url(#arrow)" />
      <line x1="640" y1="390" x2="660" y2="390" stroke="#1557ff" stroke-width="5" stroke-linecap="round" marker-end="url(#arrow)" />
      <line x1="930" y1="390" x2="950" y2="390" stroke="#1557ff" stroke-width="5" stroke-linecap="round" marker-end="url(#arrow)" />
      <line x1="1220" y1="390" x2="1240" y2="390" stroke="#1557ff" stroke-width="5" stroke-linecap="round" marker-end="url(#arrow)" />
      <rect x="220" y="640" width="1160" height="112" rx="18" fill="#e9f8ef" stroke="#bfe8d0" />
      <text x="270" y="692" font-size="30" font-weight="900" fill="#0d1117" font-family="Arial, Helvetica, sans-serif"><tspan x="270" dy="0">Search becomes a newsroom memory: claim, evidence, editor</tspan><tspan x="270" dy="35.4">decision, export.</tspan></text>
    
</svg>